<svg xmlns="http://www.w3.org/2000/svg" viewBox="0 0 2079.97394 1012.5394"><defs><style>.cls-1{fill:#ffd294;}.cls-2{fill:#fcaecf;}.cls-3{fill:#bda6ff;}.cls-4{fill:#a3eff7;}.cls-5{fill:#fff;}.cls-6{fill:none;}.cls-7{isolation:isolate;}</style></defs><g id="Layer_2" data-name="Layer 2"><g id="Layer_1-2" data-name="Layer 1"><polygon class="cls-1" points="730.947 762.243 837.769 68.7 1255.969 68.7 1149.074 762.243 730.947 762.243"/><path class="cls-1" d="M1253.05373,71.20032l-106.124,688.54224H733.8611l106.053-688.54224h413.13959m5.82971-5H835.62533l-.6529,4.23877-106.053,688.54224-.88739,5.76123h423.18616l.6532-4.2384L1257.99526,71.962l.88818-5.76172Z"/><polygon class="cls-2" points="1144.015 762.243 1250.909 68.7 1458 68.7 1351.105 762.243 1144.015 762.243"/><path class="cls-2" d="M1455.08449,71.20032l-106.124,688.54224H1146.92971l106.124-688.54224h202.03076m5.82972-5H1248.76528l-.6532,4.23853L1141.98806,758.981l-.88806,5.7616h212.14892l.6532-4.2384L1460.02614,71.962l.88807-5.76172Z"/><path class="cls-3" d="M1346.0458,762.24256,1452.94033,68.70008h546.65332l-67.13379,426.5664c-11.44434,72.8628-49.53223,140.36817-107.24609,190.07911-57.55469,49.58789-129.36524,76.897-202.20313,76.897Z"/><path class="cls-3" d="M1996.66958,71.20032,1929.9905,494.87757c-11.35669,72.30395-49.16394,139.26782-106.40881,188.57385-57.10279,49.19946-128.33875,76.29114-200.57129,76.29114H1348.96047l106.124-688.54224h541.58509m5.84851-5H1450.796l-.6532,4.23853L1344.01894,758.981l-.88818,5.7616H1623.0104c73.43774,0,145.82763-27.52454,203.835-77.50318,58.16247-50.09643,96.548-118.13647,108.08447-191.586l66.679-423.67566.9093-5.77735Z"/><path class="cls-4" d="M96.57021,841.62342l79.63721-505.94678c11.44433-72.86426,49.53222-140.36914,107.24707-190.0791,57.55273-49.58789,129.36328-76.89746,202.20263-76.89746h357.207L736.00527,762.24256H389.96377l-13.43213,6.01172L87.66005,897.91443Z"/><path class="cls-4" d="M839.94979,71.20032,733.86135,759.74256H389.42983l-13.91956,6.23-284.6589,127.769,8.188-51.72717,79.63756-505.9491c11.35644-72.30395,49.16377-139.26782,106.40889-188.574,57.10277-49.19947,128.33867-76.291,200.57121-76.291H839.94979m5.82934-5H485.657c-73.43777,0-145.82777,27.52442-203.83488,77.50318-58.16289,50.09668-96.54833,118.13671-108.08466,191.58593L94.10015,841.23694l-8.18733,51.7229L84.468,902.08729l8.43078-3.78406L377.5577,770.53406l12.94-5.7915H738.15l.653-4.23865L844.8915,71.9618l.88763-5.76148Z"/><path class="cls-5" d="M485.65708,0C301.07043,0,137.2385,141.08338,108.33121,324.9582L28.72934,830.9074,0,1012.5394l404.70239-181.632H1623.0462c184.58665,0,348.41858-141.08338,377.32587-324.9582L2079.97394,0Zm1337.9602,683.45146c-57.10255,49.19942-128.33847,76.29108-200.5713,76.29108H389.42957l-13.91956,6.23L90.8512,893.74152l8.188-51.72711,79.60186-505.9492c11.35646-72.26824,49.16379-139.2321,106.40888-188.57406,57.10255-49.19943,128.33847-76.29108,200.5713-76.29108H1996.66908l-66.64336,423.67732C1918.66949,567.18127,1880.86215,634.14513,1823.61728,683.45146Z"/><rect class="cls-6" x="43.78802" y="145.03494" width="1918.17136" height="705.59486"/><g class="cls-7"><path class="cls-5" d="M593.02529,670.70594H527.50673L478.74892,402.538l-134.084,268.168H279.90859l-57.8999-362.63623h72.375L331.71377,579.285l134.084-271.21533h56.376L570.16982,579.285,692.82607,308.06971h73.13672Z"/><path class="cls-5" d="M1032.60244,301.21326c70.85058,0,105.13379,33.521,105.13379,103.61035a280.5009,280.5009,0,0,1-4.57129,50.28125l-25.90235,162.27246c-1.52343,9.90381-1.52343,19.80762-1.52343,28.188,0,15.99854,2.28515,25.14063,2.28515,25.14063h-71.61279s-2.28565-8.38037-2.28565-24.37891a202.42423,202.42423,0,0,1,3.04737-34.28271l22.855-146.27344a232.43416,232.43416,0,0,0,3.80957-39.61572c0-40.37745-16.76074-62.4712-58.66211-62.4712-70.08887,0-100.5625,67.80372-109.70508,127.98926l-28.188,179.03272H795.66982L870.33,199.12635a218.50637,218.50637,0,0,0,2.28564-28.94971c0-15.99853-2.28564-25.14111-2.28564-25.14111h71.61328s2.28515,8.38037,2.28515,24.3789a217.42887,217.42887,0,0,1-3.04687,35.04493L915.27871,365.20789C941.94326,327.11561,985.36806,301.21326,1032.60244,301.21326Z"/><path class="cls-5" d="M1300.00966,645.56531c0,15.99854,2.28516,25.14063,2.28516,25.14063h-72.375s-2.28516-8.38037-2.28516-24.37891a202.46864,202.46864,0,0,1,3.04688-34.28271l40.37793-249.88379a218.585,218.585,0,0,0,2.28515-28.9502c0-15.99853-2.28515-25.14062-2.28515-25.14062H1341.911s2.28516,8.38037,2.28516,24.3789a217.34245,217.34245,0,0,1-3.04785,35.04493L1301.5331,617.37732C1300.00966,627.28113,1300.00966,637.18494,1300.00966,645.56531ZM1325.912,236.45643c-22.09375,0-39.61621-14.47461-39.61621-38.0918,0-28.9502,25.14062-53.3291,54.09082-53.3291,22.85547,0,39.61621,14.47509,39.61621,38.09228C1380.00283,212.07752,1355.62392,236.45643,1325.912,236.45643Z"/><path class="cls-5" d="M1559.7958,679.08631c-90.65918,0-143.22657-63.23291-143.22657-151.60645,0-114.27636,75.42286-226.2666,201.126-226.2666,47.99609,0,89.89746,19.80762,111.99121,63.23242l25.90235-165.31933a218.58006,218.58006,0,0,0,2.28515-28.94971c0-15.99853-2.28515-25.14111-2.28515-25.14111h71.61328s2.28515,8.38037,2.28515,24.3789a217.43,217.43,0,0,1-3.04687,35.04493l-65.51856,412.918c-1.52441,9.90381-1.52441,19.80762-1.52441,28.188,0,15.99854,2.28613,25.14063,2.28613,25.14063h-69.32715s-2.28613-8.38037-2.28613-24.37891c0-7.61865,0-19.8081,3.04785-32.75928h-.76172C1659.59658,654.7074,1610.83877,679.08631,1559.7958,679.08631Zm63.23242-316.92578c-82.27832,0-132.56055,77.70752-132.56055,153.8916,0,57.13818,32.75977,99.80127,92.1836,99.80127,83.04,0,132.55957-78.46973,132.55957-154.65381C1715.21084,404.06189,1683.21377,362.16053,1623.02822,362.16053Z"/></g></g></g></svg>