<svg xmlns="http://www.w3.org/2000/svg" viewBox="0 0 2124.40085 1034.16659"><defs><style>.cls-1{fill:#ffd294;}.cls-2{fill:#fcaecf;}.cls-3{fill:#bda6ff;}.cls-4{fill:#a3eff7;}.cls-5{fill:#2e2e2e;}.cls-6{fill:none;}.cls-7{isolation:isolate;}</style></defs><g id="Layer_2" data-name="Layer 2"><g id="Layer_1-2" data-name="Layer 1"><polygon class="cls-1" points="746.658 778.471 855.746 70.221 1282.733 70.221 1173.608 778.471 746.658 778.471"/><path class="cls-1" d="M1279.81823,72.72112,1171.46386,775.97035H749.57238L857.89044,72.72112h421.92779m5.82935-5h-432.046L852.94873,71.96l-108.318,703.24924-.88745,5.7611h432.00928l.65307-4.23861L1284.75988,73.48259l.8877-5.76147Z"/><polygon class="cls-2" points="1168.549 778.471 1277.674 70.221 1489.116 70.221 1379.955 778.471 1168.549 778.471"/><path class="cls-2" d="M1486.2008,72.72112,1377.81005,775.97035H1171.46386L1279.81823,72.72112H1486.2008m5.82971-5H1275.52966l-.65308,4.23864L1166.52221,775.20894l-.88769,5.76141h216.464l.65319-4.2384L1491.14233,73.48271l.88818-5.76159Z"/><path class="cls-3" d="M1374.89526,778.47063,1484.05639,70.22112h558.2207l-68.55664,435.61572c-11.6875,74.40723-50.583,143.34277-109.5205,194.10742-58.77344,50.63867-132.10547,78.52637-206.48633,78.52637Z"/><path class="cls-3" d="M2039.35351,72.72112l-68.10327,432.7268c-11.59924,73.84821-50.21411,142.24243-108.68164,192.60181-58.32227,50.25034-131.07971,77.92062-204.85523,77.92062H1377.81005L1486.2008,72.72112h553.15271m5.84851-5H1481.91235l-.6532,4.2384L1372.86853,775.20876l-.88819,5.76159h285.733c74.981,0,148.89234-28.10321,208.1189-79.13272,59.38574-51.15027,98.57837-120.62079,110.35742-195.61389l68.103-432.72528.9093-5.77734Z"/><path class="cls-4" d="M98.72192,859.6093l81.30176-516.75439c11.687-74.40772,50.582-143.34327,109.52-194.10743,58.77295-50.63867,132.105-78.52636,206.48681-78.52636h364.811l-109.125,708.24951H398.3186l-13.73,6.14551L89.63647,917.00383Z"/><path class="cls-4" d="M857.92675,72.72112,749.57238,775.97035H397.78417l-14.21682,6.36307-290.739,130.498,8.36294-52.83188,81.30212-516.756C194.09241,269.39531,232.70723,201.001,291.175,150.64165c58.32248-50.25025,131.08-77.92053,204.85542-77.92053H857.92675m5.82941-5H496.03042c-74.98083,0-148.89224,28.10327-208.11906,79.13256-59.386,51.15027-98.57859,120.62092-110.35742,195.61408l-81.302,516.7547-8.36212,52.82718L86.445,921.17717l8.43071-3.78424,290.73906-130.498,13.23731-5.92459H753.861l.653-4.23858L862.8684,73.48259l.88776-5.76147Z"/><path class="cls-5" d="M496.03045,0C307.50113,0,140.16985,144.09685,110.6451,331.899L29.343,848.655,0,1034.16659,413.34662,848.65514H1657.71338c188.52932,0,355.86061-144.09684,385.38535-331.899L2124.40085.00011H496.03045Zm1366.5381,698.04962c-58.32223,50.25029-131.07971,77.92061-204.85539,77.92061H397.7842l-14.21688,6.3631L92.82835,912.83125l8.36288-52.83186,81.30212-516.756c11.599-73.81185,50.2139-142.20613,108.68171-192.60179C349.49729,100.39129,422.25477,72.721,496.03045,72.721H2039.35393L1971.2871,505.44782C1959.65146,579.29618,1921.073,647.69035,1862.56855,698.04962Z"/><rect class="cls-6" x="44.75982" y="148.13281" width="1959.14258" height="720.66588"/><g class="cls-7"><path class="cls-5" d="M605.72631,685.03508h-66.918l-49.7998-273.89892L352.05883,685.03508H285.91821L226.781,314.64836h73.92139l38.12842,277.01123L475.78,314.64836h57.58106l49.02148,277.01123L707.66088,314.64836H782.3601Z"/><path class="cls-5" d="M1054.69116,307.64543c72.36523,0,107.38086,34.2378,107.38086,105.82471a286.46488,286.46488,0,0,1-4.66895,51.35547L1130.947,630.56584c-1.55567,10.11621-1.55567,20.23194-1.55567,28.79151,0,16.33984,2.334,25.67773,2.334,25.67773h-73.14356s-2.334-8.55957-2.334-24.90039a206.80006,206.80006,0,0,1,3.1123-35.01514l23.34375-149.39941a237.50822,237.50822,0,0,0,3.89063-40.46289c0-41.24023-17.11914-63.80566-59.915-63.80566-71.58789,0-102.71289,69.25293-112.04981,130.7246l-28.791,182.85889H812.69506L888.9519,203.37737a223.31691,223.31691,0,0,0,2.334-29.56885c0-16.34033-2.334-25.67822-2.334-25.67822h73.14258s2.335,8.55957,2.335,24.8999a222.09092,222.09092,0,0,1-3.11231,35.79394L934.86108,373.00725C962.09448,334.102,1006.448,307.64543,1054.69116,307.64543Z"/><path class="cls-5" d="M1327.80834,659.35735c0,16.33984,2.334,25.67773,2.334,25.67773h-73.92188s-2.334-8.55957-2.334-24.90039a206.80006,206.80006,0,0,1,3.1123-35.01514L1298.239,369.89494a223.15643,223.15643,0,0,0,2.335-29.56835c0-16.34082-2.335-25.67823-2.335-25.67823h72.36621s2.334,8.55957,2.334,24.89991a222.092,222.092,0,0,1-3.1123,35.79394L1329.364,630.56584C1327.80834,640.68205,1327.80834,650.79778,1327.80834,659.35735Zm26.45606-417.852c-22.56543,0-40.46289-14.78467-40.46289-38.90625,0-29.56885,25.67871-54.46875,55.24707-54.46875,23.34375,0,40.46191,14.78466,40.46191,38.90625C1409.51049,216.60539,1384.61108,241.5053,1354.2644,241.5053Z"/><path class="cls-5" d="M1593.14331,693.59465c-92.59668,0-146.28711-64.58447-146.28711-154.84717,0-116.71777,77.03418-231.102,205.4248-231.102,49.02149,0,91.81836,20.231,114.38379,64.58448l26.45605-168.85254a223.14876,223.14876,0,0,0,2.334-29.56885c0-16.34033-2.334-25.67822-2.334-25.67822h73.14356s2.334,8.55957,2.334,24.8999a221.97937,221.97937,0,0,1-3.1123,35.79394l-66.918,421.7417c-1.55664,10.11621-1.55664,20.23194-1.55664,28.79151,0,16.33984,2.334,25.67773,2.334,25.67773h-70.80859s-2.334-8.55957-2.334-24.90039c0-7.78027,0-20.231,3.1123-33.45947h-.77832C1695.07788,668.69426,1645.27807,693.59465,1593.14331,693.59465Zm64.584-323.69971c-84.03711,0-135.39258,79.36915-135.39258,157.18067,0,58.35937,33.459,101.93457,94.15235,101.93457,84.81543,0,135.39355-80.14649,135.39355-157.959C1751.88061,412.69182,1719.199,369.89494,1657.72729,369.89494Z"/></g></g></g></svg>