<svg xmlns="http://www.w3.org/2000/svg" viewBox="0 0 584.26 284.43"><defs><style>.cls-1{fill:#ffd294;}.cls-2{fill:#fc9fc6;}.cls-3{fill:#bda6ff;}.cls-4{fill:#a3eff7;}.cls-5,.cls-6{fill:#fff;}.cls-6{font-size:214px;font-family:Gibson-Italic, Gibson;font-style:italic;letter-spacing:0.04em;}</style></defs><g id="Layer_2" data-name="Layer 2"><g id="Layer_5" data-name="Layer 5"><polygon class="cls-1" points="235.94 20 206.14 213.41 322.17 213.41 351.98 20 235.94 20"/><polygon class="cls-2" points="351.98 20 322.17 213.41 378.93 213.41 408.74 20 351.98 20"/><path class="cls-3" d="M560.87,20H408.74L378.93,213.41h77A86.64,86.64,0,0,0,512.25,192a88.32,88.32,0,0,0,29.89-53Z"/><path class="cls-4" d="M136.42,20A86.64,86.64,0,0,0,80.08,41.43a88.39,88.39,0,0,0-29.9,53L27.83,236.51l-2.3,14.54,80-35.89,3.9-1.75h96.75L235.94,20Z"/><path class="cls-5" d="M136.42,0c-51.85,0-97.87,39.63-106,91.28L8.07,233.41,0,284.43l113.68-51H455.91c51.85,0,97.87-39.63,106-91.29L584.26,0ZM512.25,192a86.64,86.64,0,0,1-56.34,21.43H109.39l-3.9,1.75-80,35.89,2.3-14.54L50.18,94.39a88.39,88.39,0,0,1,29.9-53A86.64,86.64,0,0,1,136.42,20H560.87L542.14,139A88.32,88.32,0,0,1,512.25,192Z"/><text class="cls-6" transform="translate(48.67 188.4)">whid</text></g></g></svg>